<svg id="Group_4" data-name="Group 4" xmlns="http://www.w3.org/2000/svg" xmlns:xlink="http://www.w3.org/1999/xlink" width="224.954" height="100" viewBox="0 0 224.954 100">
  <defs>
    <clipPath id="clip-path">
      <rect id="Rectangle_4" data-name="Rectangle 4" width="224.954" height="100" fill="none"/>
    </clipPath>
  </defs>
  <rect id="Rectangle_1" data-name="Rectangle 1" width="224.954" height="99.999" transform="translate(0 0.001)" fill="#999b97"/>
  <path id="Path_1" data-name="Path 1" d="M223.08,98.126H17.263V17.263H223.08ZM18.521,96.873h203.3V18.517H18.521Z" transform="translate(-7.695 -7.695)" fill="#fff"/>
  <rect id="Rectangle_2" data-name="Rectangle 2" width="107.939" height="0.405" transform="translate(58.663 68.129)" fill="#fff"/>
  <rect id="Rectangle_3" data-name="Rectangle 3" width="107.939" height="0.405" transform="translate(58.663 80.887)" fill="#fff"/>
  <g id="Group_2" data-name="Group 2">
    <g id="Group_1" data-name="Group 1" clip-path="url(#clip-path)">
      <path id="Path_2" data-name="Path 2" d="M125.551,133.875c-.1-.437-.312-.873-.82-.873-.561,0-.784.454-.784.954,0,.481.1.624,1.033,1.194.731.428,1.23.8,1.23,1.72a1.486,1.486,0,0,1-1.5,1.675c-1.051,0-1.435-.695-1.524-1.639l.6-.08c.08.659.223,1.158.945,1.158.517,0,.882-.347.882-1.06,0-.784-.508-1.052-1.122-1.408-.687-.4-1.141-.687-1.141-1.559a1.42,1.42,0,0,1,1.381-1.515c.838,0,1.247.6,1.4,1.346Z" transform="translate(-56.325 -60.554)" fill="#fff"/>
      <path id="Path_3" data-name="Path 3" d="M149.543,132.587v4.322c0,.588.116,1.141.855,1.141s.865-.562.865-1.141v-4.322h.6v4.5a1.4,1.4,0,0,1-1.461,1.524,1.387,1.387,0,0,1-1.452-1.5v-4.527Z" transform="translate(-68.101 -60.621)" fill="#fff"/>
      <path id="Path_4" data-name="Path 4" d="M173.155,138.531h-.6v-5.944h1.292a1.455,1.455,0,0,1,1.639,1.578c0,1.1-.624,1.72-1.443,1.72h-.891Zm0-3.181.837-.009c.553,0,.873-.428.873-1.176a.916.916,0,0,0-1.024-1.043h-.687Z" transform="translate(-78.897 -60.621)" fill="#fff"/>
      <path id="Path_5" data-name="Path 5" d="M198.747,138.531h-.6v-5.944h1.292a1.455,1.455,0,0,1,1.639,1.578c0,1.1-.624,1.72-1.443,1.72h-.891Zm0-3.181.837-.009c.553,0,.873-.428.873-1.176a.916.916,0,0,0-1.024-1.043h-.687Z" transform="translate(-90.598 -60.621)" fill="#fff"/>
      <path id="Path_6" data-name="Path 6" d="M219.849,132.587h.6V138h2.443v.535h-3.039Z" transform="translate(-100.519 -60.621)" fill="#fff"/>
      <path id="Path_7" data-name="Path 7" d="M242.547,133.122h-.8v-.535h2.209v.535h-.811V138h.811v.535h-2.209V138h.8Z" transform="translate(-110.53 -60.621)" fill="#fff"/>
      <path id="Path_8" data-name="Path 8" d="M264.059,132.587h2.9v.535h-2.3v1.96h1.9v.535h-1.9V138h2.3v.535h-2.9Z" transform="translate(-120.733 -60.621)" fill="#fff"/>
      <path id="Path_9" data-name="Path 9" d="M290,133.875c-.1-.437-.312-.873-.82-.873-.562,0-.784.454-.784.954,0,.481.1.624,1.033,1.194.731.428,1.23.8,1.23,1.72a1.487,1.487,0,0,1-1.5,1.675c-1.051,0-1.435-.695-1.524-1.639l.6-.08c.079.659.223,1.158.944,1.158.516,0,.882-.347.882-1.06,0-.784-.508-1.052-1.122-1.408-.687-.4-1.141-.687-1.141-1.559a1.42,1.42,0,0,1,1.381-1.515c.837,0,1.247.6,1.4,1.346Z" transform="translate(-131.513 -60.554)" fill="#fff"/>
      <path id="Path_10" data-name="Path 10" d="M118.563,73.133a13.233,13.233,0,0,1-6.042-1.316,12.354,12.354,0,0,1-4.324-3.572l4.941-4.725a6.574,6.574,0,0,0,2.336,2.121,6.389,6.389,0,0,0,3.035.725,5.951,5.951,0,0,0,2.927-.7,4.639,4.639,0,0,0,1.933-2.04,7.278,7.278,0,0,0,.671-3.277V34.842H131.4v25.08a14.606,14.606,0,0,1-1.584,6.955,11.312,11.312,0,0,1-4.457,4.619,13.486,13.486,0,0,1-6.793,1.638" transform="translate(-49.47 -15.93)" fill="#fff"/>
      <path id="Path_11" data-name="Path 11" d="M161.527,72.6l15.2-37.754h5.961L197.831,72.6h-7.787L178.337,41.609h2.685L169.153,72.6Zm8.056-13.158h20.3v6.122h-20.3Z" transform="translate(-73.853 -15.93)" fill="#fff"/>
      <path id="Path_12" data-name="Path 12" d="M253.485,72.635a19.3,19.3,0,0,1-7.546-1.477A18.883,18.883,0,0,1,239.764,67a19.541,19.541,0,0,1,.081-27.63,19.178,19.178,0,0,1,6.283-4.135,20.314,20.314,0,0,1,7.787-1.477,20.894,20.894,0,0,1,8.592,1.746,17.31,17.31,0,0,1,6.5,4.914l-4.94,4.941a11.81,11.81,0,0,0-4.4-3.544,13.483,13.483,0,0,0-5.8-1.235,12.578,12.578,0,0,0-6.364,1.584,11.231,11.231,0,0,0-4.323,4.4,13.385,13.385,0,0,0-1.557,6.579,13.887,13.887,0,0,0,1.531,6.633,11.364,11.364,0,0,0,4.189,4.484,11.52,11.52,0,0,0,6.1,1.612,12.978,12.978,0,0,0,6.069-1.316,8.963,8.963,0,0,0,3.866-3.867,13.311,13.311,0,0,0,1.343-6.257l4.78,3.276L253,57.544V51.207h19.226v1.02a23.853,23.853,0,0,1-2.416,11.3,16.161,16.161,0,0,1-6.633,6.821,20.036,20.036,0,0,1-9.693,2.282" transform="translate(-107.059 -15.432)" fill="#fff"/>
    </g>
  </g>
</svg>
