<svg xmlns="http://www.w3.org/2000/svg" width="13.466" height="14.027" viewBox="0 0 13.466 14.027">
  <path id="Icon_material-add-shopping-cart" data-name="Icon material-add-shopping-cart" d="M8.179,6.844H9.515v-2h2V3.5h-2v-2H8.179v2h-2V4.84h2ZM5.508,12.855a1.336,1.336,0,1,0,1.336,1.336A1.334,1.334,0,0,0,5.508,12.855Zm6.679,0a1.336,1.336,0,1,0,1.336,1.336A1.334,1.334,0,0,0,12.187,12.855ZM5.621,10.684l.02-.08.6-1.089h4.976a1.33,1.33,0,0,0,1.169-.688l2.578-4.682L13.8,3.5H13.8L13.062,4.84l-1.844,3.34H6.53L6.443,8,4.947,4.84,4.312,3.5,3.684,2.168H1.5V3.5H2.836l2.4,5.07-.9,1.636a1.291,1.291,0,0,0-.167.641,1.34,1.34,0,0,0,1.336,1.336h8.015V10.851H5.788A.17.17,0,0,1,5.621,10.684Z" transform="translate(-1.5 -1.5)" fill="#bbc50f"/>
</svg>
