<svg xmlns="http://www.w3.org/2000/svg" width="22.035" height="22.035" viewBox="0 0 22.035 22.035">
  <path id="Icon_awesome-pinterest" data-name="Icon awesome-pinterest" d="M22.035,11.58A11.019,11.019,0,0,1,7.757,22.1a12.385,12.385,0,0,0,1.368-2.888c.133-.515.684-2.621.684-2.621a2.951,2.951,0,0,0,2.523,1.266c3.323,0,5.718-3.056,5.718-6.855a6.466,6.466,0,0,0-6.793-6.362c-4.754,0-7.281,3.19-7.281,6.668,0,1.617.862,3.63,2.235,4.269.209.1.32.053.369-.147.036-.151.222-.9.307-1.248a.33.33,0,0,0-.076-.315A4.339,4.339,0,0,1,6,11.358a4.768,4.768,0,0,1,4.976-4.78,4.35,4.35,0,0,1,4.6,4.483c0,2.981-1.506,5.047-3.465,5.047a1.6,1.6,0,0,1-1.63-1.99,22.139,22.139,0,0,0,.911-3.67A1.384,1.384,0,0,0,10,8.9C8.89,8.9,8,10.038,8,11.571a3.97,3.97,0,0,0,.329,1.635s-1.088,4.611-1.288,5.473A10.665,10.665,0,0,0,7,21.842,11.019,11.019,0,1,1,22.035,11.58Z" transform="translate(0 -0.563)" fill="#fff"/>
</svg>
