<svg xmlns="http://www.w3.org/2000/svg" width="20.832" height="20.832" viewBox="0 0 20.832 20.832">
  <path id="Icon_simple-instagram" data-name="Icon simple-instagram" d="M10.416,0C7.586,0,7.233.013,6.122.062A7.681,7.681,0,0,0,3.594.547a5.1,5.1,0,0,0-1.845,1.2,5.082,5.082,0,0,0-1.2,1.845A7.658,7.658,0,0,0,.062,6.122C.01,7.233,0,7.586,0,10.416S.013,13.6.062,14.71a7.685,7.685,0,0,0,.484,2.529,5.108,5.108,0,0,0,1.2,1.845,5.094,5.094,0,0,0,1.845,1.2,7.69,7.69,0,0,0,2.529.484c1.111.052,1.464.062,4.294.062s3.183-.013,4.294-.062a7.708,7.708,0,0,0,2.529-.484,5.323,5.323,0,0,0,3.047-3.047,7.685,7.685,0,0,0,.484-2.529c.052-1.111.062-1.464.062-4.294s-.013-3.183-.062-4.294a7.7,7.7,0,0,0-.484-2.529,5.112,5.112,0,0,0-1.2-1.845,5.075,5.075,0,0,0-1.845-1.2A7.663,7.663,0,0,0,14.71.062C13.6.01,13.246,0,10.416,0Zm0,1.875c2.78,0,3.112.014,4.21.062a5.739,5.739,0,0,1,1.933.36,3.428,3.428,0,0,1,1.977,1.976,5.751,5.751,0,0,1,.358,1.933c.049,1.1.061,1.429.061,4.21s-.013,3.112-.064,4.21a5.862,5.862,0,0,1-.365,1.933,3.307,3.307,0,0,1-.78,1.2,3.25,3.25,0,0,1-1.2.778,5.793,5.793,0,0,1-1.94.358c-1.106.049-1.431.061-4.218.061s-3.113-.013-4.218-.064a5.906,5.906,0,0,1-1.941-.365,3.226,3.226,0,0,1-1.2-.78,3.163,3.163,0,0,1-.781-1.2,5.911,5.911,0,0,1-.365-1.94c-.039-1.094-.053-1.431-.053-4.2s.014-3.113.053-4.219a5.9,5.9,0,0,1,.365-1.939,3.088,3.088,0,0,1,.781-1.2,3.081,3.081,0,0,1,1.2-.779A5.765,5.765,0,0,1,6.159,1.9c1.107-.039,1.432-.052,4.218-.052l.039.026Zm0,3.193a5.349,5.349,0,1,0,5.349,5.349A5.348,5.348,0,0,0,10.416,5.067Zm0,8.821a3.472,3.472,0,1,1,3.472-3.472A3.471,3.471,0,0,1,10.416,13.888Zm6.81-9.032a1.25,1.25,0,1,1-1.25-1.249A1.251,1.251,0,0,1,17.227,4.857Z" fill="#b1aca2"/>
</svg>
