<svg xmlns="http://www.w3.org/2000/svg" width="20.426" height="16.621" viewBox="0 0 20.426 16.621">
  <path id="Icon_ionic-logo-twitter" data-name="Icon ionic-logo-twitter" d="M21.839,6.469a8.472,8.472,0,0,1-2.407.662,4.205,4.205,0,0,0,1.844-2.32,8.327,8.327,0,0,1-2.662,1.017,4.189,4.189,0,0,0-7.25,2.865,4.1,4.1,0,0,0,.108.957,11.876,11.876,0,0,1-8.64-4.385,4.2,4.2,0,0,0,1.3,5.6,4.093,4.093,0,0,1-1.9-.524V10.4a4.194,4.194,0,0,0,3.363,4.112,4.218,4.218,0,0,1-1.1.147,3.953,3.953,0,0,1-.788-.078A4.2,4.2,0,0,0,7.62,17.49a8.4,8.4,0,0,1-5.207,1.8,8.495,8.495,0,0,1-1-.061,11.714,11.714,0,0,0,6.415,1.9A11.853,11.853,0,0,0,19.762,9.183c0-.182,0-.364-.013-.541A8.531,8.531,0,0,0,21.839,6.469Z" transform="translate(-1.413 -4.5)" fill="#b1aca2"/>
</svg>
